#!OML:ASF I:\Actors\actors\Patient Classification 2\Patient 1\Session 1\actor1.ASF
:FULLY-SPECIFIED
:DEGREES
276
root -0.385876 18.3503 3.68225 -2.98873 1.89749 0.120383
lowerback 24.0129 -1.39323 2.03022
upperback 6.32027 -1.25416 0.662079
thorax -6.42717 -0.61821 -0.0806283
lowerneck -19.6342 -1.32917 -2.28665
upperneck 14.4281 -1.72238 2.9628
head 7.71554 -0.649855 1.14611
rclavicle -1.20265e-014 -1.59028e-015
rhumerus 1.10814 31.8745 -78.4526
rradius 79.5485
rwrist 10.0354
rhand -37.1084 -51.2996
rfingers 7.12502
rthumb -10.1792 -81.0333
lclavicle -1.20265e-014 -1.59028e-015
lhumerus 4.67744 -39.5337 68.0513
lradius 88.0219
lwrist 16.7194
lhand -32.5652 -50.6713
lfingers 7.12502
lthumb -5.79443 -20.7706
rfemur -5.87998 0.714468 12.4212
rtibia 21.513
rfoot -20.0632 -8.82172
rtoes -7.6056
lfemur -15.0635 0.845306 -14.75
ltibia 33.8353
lfoot -17.5292 4.33532
ltoes -56.1381
277
root -0.387251 18.3523 3.74802 -3.23138 1.83443 0.0592208
lowerback 23.4973 -1.31468 2.16329
upperback 6.04486 -1.14126 0.567905
thorax -6.46955 -0.567486 -0.297057
lowerneck -19.7028 -1.43365 -2.26867
upperneck 14.9716 -1.91961 3.15977
head 7.91623 -0.719314 1.18615
rclavicle 5.96354e-016 1.23246e-014
rhumerus -1.61243 32.6 -79.0371
rradius 82.1779
rwrist 9.68613
rhand -37.4682 -51.9568
rfingers 7.12502
rthumb -10.5263 -81.6732
lclavicle 5.96354e-016 1.23246e-014
lhumerus 1.78054 -40.8233 68.3086
lradius 91.1562
lwrist 17.1232
lhand -32.6025 -50.9749
lfingers 7.12502
lthumb -5.83044 -21.0751
rfemur -5.2348 0.645548 12.5113
rtibia 21.1765
rfoot -20.0485 -8.74437
rtoes -7.79733
lfemur -14.4793 0.710605 -14.6742
ltibia 33.7136
lfoot -17.7219 4.38738
ltoes -55.9632
278
root -0.387702 18.3575 3.81719 -3.25746 1.92876 -0.0451599
lowerback 22.6058 -1.27355 2.37303
upperback 5.77216 -1.07 0.492481
thorax -6.31452 -0.536689 -0.529743
lowerneck -19.723 -1.55951 -2.29841
upperneck 15.3896 -2.15082 3.44912
head 8.07071 -0.798116 1.26034
rclavicle 5.06901e-015 -7.15625e-015
rhumerus -4.59951 33.1555 -79.6625
rradius 84.9891
rwrist 9.51329
rhand -37.8588 -52.5493
rfingers 7.12502
rthumb -10.9031 -82.2463
lclavicle 5.06901e-015 -7.15625e-015
lhumerus -0.930262 -41.8665 68.5934
lradius 93.9566
lwrist 16.9325
lhand -32.4026 -51.1951
lfingers 7.12502
lthumb -5.6374 -21.2901
rfemur -4.73873 0.470931 12.6419
rtibia 20.7721
rfoot -20.0991 -8.71095
rtoes -7.9826
lfemur -14.1464 0.555986 -14.5571
ltibia 33.5629
lfoot -17.8547 4.39273
ltoes -55.9075
279
root -0.410405 18.3649 3.89258 -3.46131 1.53936 -0.12376
lowerback 21.8572 -0.946059 2.11547
upperback 5.58218 -0.724184 0.49224
thorax -6.12342 -0.368013 -0.48457
lowerneck -19.7809 -1.72133 -2.36917
upperneck 15.7996 -2.42918 3.77763
head 8.23319 -0.896171 1.34837
rclavicle -7.05686e-015 1.13307e-014
rhumerus -7.79619 33.5376 -80.3894
rradius 88.01
rwrist 9.59545
rhand -37.9612 -52.8853
rfingers 7.12502
rthumb -11.0019 -82.577
lclavicle -7.05686e-015 1.13307e-014
lhumerus -3.45876 -42.7094 68.8628
lradius 96.5073
lwrist 16.208
lhand -32.3901 -51.4524
lfingers 7.12502
lthumb -5.6254 -21.547
rfemur -4.03648 0.890479 12.8722
rtibia 20.2406
rfoot -20.209 -8.76196
rtoes -8.05385
lfemur -13.4234 0.890623 -14.3485
ltibia 33.308
lfoot -18.0641 4.38417
ltoes -56.0041
280
root -0.418832 18.371 3.96377 -3.78596 1.43728 -0.171494
lowerback 21.3011 -0.785792 2.01404
upperback 5.39324 -0.551631 0.4863
thorax -6.03537 -0.284429 -0.482486
lowerneck -19.8213 -1.84112 -2.40619
upperneck 16.2139 -2.63649 3.97604
head 8.39092 -0.971474 1.39625
rclavicle -4.96962e-016 1.5704e-014
rhumerus -10.8286 34.1154 -81.1331
rradius 90.8543
rwrist 9.21884
rhand -38.5912 -52.3825
rfingers 7.12502
rthumb -11.6095 -82.0409
lclavicle -4.96962e-016 1.5704e-014
lhumerus -6.04095 -43.454 69.268
lradius 98.9585
lwrist 15.7097
lhand -32.6 -51.6267
lfingers 7.12502
lthumb -5.82802 -21.7269
rfemur -3.13032 1.02396 12.9869
rtibia 19.6259
rfoot -20.2401 -8.77489
rtoes -7.96185
lfemur -12.6163 0.819024 -14.2645
ltibia 33.0058
lfoot -18.2759 4.49607
ltoes -56.0718
281
root -0.443749 18.384 4.05208 -3.99944 1.91123 -0.190405
lowerback 20.3998 -0.758526 1.6624
upperback 5.20704 -0.602089 0.58017
thorax -5.7642 -0.304801 -0.175661
lowerneck -19.872 -1.92184 -2.33224
upperneck 16.6517 -2.78323 3.97426
head 8.55249 -1.03157 1.36598
rclavicle 5.36719e-015 6.55989e-015
rhumerus -13.9021 34.8076 -81.9756
rradius 93.5471
rwrist 8.2909
rhand -40.1935 -51.4572
rfingers 7.12502
rthumb -13.1543 -81.0222
lclavicle 5.36719e-015 6.55989e-015
lhumerus -8.64281 -44.1491 69.8244
lradius 101.269
lwrist 15.422
lhand -33.3 -52.4824
lfingers 7.12502
lthumb -6.50386 -22.6022
rfemur -2.07885 1.04553 13.1461
rtibia 18.9615
rfoot -20.6755 -9.04288
rtoes -7.5993
lfemur -11.9398 0.528811 -14.1685
ltibia 32.6818
lfoot -18.4033 4.3162
ltoes -56.151
282
root -0.446226 18.3931 4.1255 -4.1903 2.0145 -0.213574
lowerback 19.7192 -0.67965 1.5863
upperback 4.96235 -0.526236 0.593829
thorax -5.66911 -0.268034 -0.141118
lowerneck -19.9779 -2.0246 -2.29628
upperneck 17.1426 -2.95491 3.99094
head 8.74435 -1.10219 1.34449
rclavicle -2.48481e-016 -1.37161e-014
rhumerus -16.9595 35.1023 -82.934
rradius 96.1461
rwrist 7.98157
rhand -41.1471 -51.2918
rfingers 7.12502
rthumb -14.0734 -80.7953
lclavicle -2.48481e-016 -1.37161e-014
lhumerus -11.13 -44.7408 70.4045
lradius 103.418
lwrist 15.2343
lhand -33.5237 -53.1322
lfingers 7.12502
lthumb -6.71983 -23.2588
rfemur -1.21533 1.03357 13.1894
rtibia 18.2261
rfoot -20.7061 -9.14984
rtoes -7.47552
lfemur -11.301 0.214659 -14.1679
ltibia 32.3617
lfoot -18.5904 4.528
ltoes -56.2003
283
root -0.423579 18.3994 4.18276 -4.19437 1.86597 -0.300599
lowerback 19.0774 -0.624047 1.93058
upperback 4.61044 -0.402792 0.520993
thorax -5.70931 -0.214045 -0.447093
lowerneck -20.0028 -2.12662 -2.36709
upperneck 17.5915 -3.12519 4.14679
head 8.91284 -1.16487 1.3882
rclavicle -5.86415e-015 2.80286e-014
rhumerus -19.7821 35.0814 -83.8779
rradius 98.5195
rwrist 8.24384
rhand -41.3854 -51.8413
rfingers 7.12502
rthumb -14.303 -81.3287
lclavicle -5.86415e-015 2.80286e-014
lhumerus -13.6268 -45.1731 71.0204
lradius 105.447
lwrist 15.2376
lhand -32.6103 -52.2992
lfingers 7.12502
lthumb -5.83801 -22.3996
rfemur -0.696359 0.919623 13.1701
rtibia 17.4
rfoot -20.3223 -9.15231
rtoes -7.6517
lfemur -10.9069 -0.203022 -14.2134
ltibia 32.0078
lfoot -18.7822 5.05826
ltoes -56.1499
284
root -0.430643 18.4096 4.25676 -4.31731 1.96151 -0.400899
lowerback 18.3974 -0.565687 1.8568
upperback 4.30062 -0.351113 0.557425
thorax -5.67894 -0.18968 -0.381142
lowerneck -19.8972 -2.19467 -2.39859
upperneck 17.9562 -3.26307 4.31242
head 9.0287 -1.21068 1.43361
rclavicle -3.47873e-016 -8.54774e-015
rhumerus -22.5242 35.0026 -84.7856
rradius 100.737
rwrist 8.46798
rhand -41.5892 -52.4027
rfingers 7.12502
rthumb -14.4994 -81.8761
lclavicle -3.47873e-016 -8.54774e-015
lhumerus -16.1361 -45.5128 71.6667
lradius 107.34
lwrist 15.2577
lhand -32.3692 -52.0732
lfingers 7.12502
lthumb -5.60518 -22.1673
rfemur 0.20777 1.08956 13.3505
rtibia 16.4402
rfoot -20.356 -9.48603
rtoes -7.66526
lfemur -10.3411 -0.390134 -14.0901
ltibia 31.6712
lfoot -18.92 5.07551
ltoes -56.12
285
root -0.457056 18.4227 4.34552 -4.50414 2.50394 -0.464634
lowerback 17.3539 -0.54956 1.34101
upperback 4.21041 -0.431051 0.783343
thorax -5.21512 -0.220412 0.161969
lowerneck -19.8316 -2.28182 -2.57528
upperneck 18.1515 -3.36531 4.42572
head 9.09358 -1.25699 1.48895
rclavicle -3.03147e-015 -4.57205e-015
rhumerus -24.5969 34.3473 -84.9486
rradius 102.834
rwrist 10.3953
rhand -39.4885 -54.2589
rfingers 7.12502
rthumb -12.4747 -83.8666
lclavicle -3.03147e-015 -4.57205e-015
lhumerus -18.1134 -45.7205 72.1846
lradius 109.008
lwrist 15.303
lhand -32.3998 -52.0098
lfingers 7.12502
lthumb -5.63477 -22.1047
rfemur 1.47837 1.24062 13.604
rtibia 15.3047
rfoot -20.7352 -10.0704
rtoes -7.28235
lfemur -9.70839 -0.643317 -13.9288
ltibia 31.3374
lfoot -18.9767 4.73482
ltoes -56.1912
286
root -0.469076 18.4316 4.42316 -4.78232 2.7774 -0.894514
lowerback 16.5692 -0.539888 1.49848
upperback 4.11656 -0.394305 0.994888
thorax -4.89364 -0.202656 0.282547
lowerneck -19.9169 -2.4134 -2.82665
upperneck 18.4516 -3.5171 4.5766
head 9.22639 -1.32438 1.56255
rclavicle 3.03147e-015 -2.18663e-015
rhumerus -26.7742 34.1181 -85.4209
rradius 104.815
rwrist 10.5555
rhand -39.2482 -54.2492
rfingers 7.12502
rthumb -12.243 -83.8708
lclavicle 3.03147e-015 -2.18663e-015
lhumerus -19.7278 -45.9923 72.452
lradius 110.484
lwrist 15.4287
lhand -32.0386 -51.1454
lfingers 7.12502
lthumb -5.28596 -21.2313
rfemur 2.73133 1.34866 14.1866
rtibia 14.1025
rfoot -20.8134 -10.5082
rtoes -6.88995
lfemur -8.97924 -0.884014 -13.4258
ltibia 30.9302
lfoot -19.0139 4.58267
ltoes -56.1918
287
root -0.472465 18.4407 4.49455 -4.99986 2.93501 -1.37489
lowerback 16.0763 -0.590731 2.06673
upperback 3.81123 -0.375685 0.98162
thorax -4.95548 -0.200639 -0.0591997
lowerneck -19.9306 -2.50462 -2.80569
upperneck 18.9338 -3.7138 4.75986
head 9.40897 -1.38807 1.59775
rclavicle 4.62174e-015 2.38542e-015
rhumerus -29.4951 34.3668 -86.8026
rradius 106.654
rwrist 9.12705
rhand -41.1555 -52.5558
rfingers 7.12502
rthumb -14.0815 -82.0587
lclavicle 4.62174e-015 2.38542e-015
lhumerus -21.417 -46.4053 72.4819
lradius 111.879
lwrist 15.5893
lhand -31.9201 -50.4377
lfingers 7.12502
lthumb -5.1716 -20.5208
rfemur 3.8453 1.40454 14.7781
rtibia 12.9032
rfoot -20.6987 -10.9057
rtoes -6.89205
lfemur -8.31648 -1.0996 -12.8986
ltibia 30.4879
lfoot -19.0464 4.52023
ltoes -56.1919
